<?xml version="1.0" ?><svg height="512px" version="1.1" viewBox="0 0 512 512" width="512px" xmlns="http://www.w3.org/2000/svg" xmlns:xlink="http://www.w3.org/1999/xlink"><title/><desc/><defs><polygon id="path-1" points="0.000764179105 508.411765 510.639761 508.411765 510.639761 1.35222353 0.000764179105 1.35222353 0.000764179105 508.411765"/></defs><g fill="none" fill-rule="evenodd" id="SVG" stroke="none" stroke-width="1"><g id="Snooker"><g id="4"><path d="M255.320645,14.9713471 C120.641719,14.9713471 11.4634507,123.384465 11.4634507,257.119524 C11.4634507,390.854582 120.641719,499.2677 255.320645,499.2677 C389.99957,499.2677 499.177839,390.854582 499.177839,257.119524 C499.177839,123.384465 389.99957,14.9713471 255.320645,14.9713471" fill="#50525E" id="Fill-1"/><path d="M389.890293,55.1981 C415.467367,93.5035118 430.399427,139.419924 430.399427,188.826924 C430.399427,322.561982 321.221158,430.9751 186.542233,430.9751 C136.794173,430.9751 90.5460537,416.147688 51.9779343,390.742276 C95.6431284,456.1301 170.395128,499.269218 255.318352,499.269218 C389.997278,499.269218 499.175546,390.8561 499.175546,257.121041 C499.175546,172.785394 455.739606,98.5572765 389.890293,55.1981" fill="#010202" id="Fill-6" opacity="0.3"/><g id="Group-5" transform="translate(0.000000, 2.236012)"><mask fill="white" id="mask-2"><use xlink:href="#path-1"/></mask><g id="Clip-4"/><path d="M255.320645,24.1169294 C127.175451,24.1169294 22.9261373,127.643224 22.9261373,254.882753 C22.9261373,382.129871 127.175451,485.648576 255.320645,485.648576 C383.465839,485.648576 487.715152,382.129871 487.715152,254.882753 C487.715152,127.643224 383.465839,24.1169294 255.320645,24.1169294 M255.320645,508.413282 C114.535928,508.413282 0.000764179105,394.680812 0.000764179105,254.882753 C0.000764179105,115.084694 114.535928,1.35222353 255.320645,1.35222353 C396.105361,1.35222353 510.640525,115.084694 510.640525,254.882753 C510.640525,394.680812 396.105361,508.413282 255.320645,508.413282" fill="#2E2E30" id="Fill-3" mask="url(#mask-2)"/></g><path d="M255.320645,132.826506 C186.193003,132.826506 130.148107,188.471035 130.148107,257.1218 C130.148107,325.764976 186.193003,381.409506 255.320645,381.409506 C324.448287,381.409506 380.493182,325.764976 380.493182,257.1218 C380.493182,188.471035 324.448287,132.826506 255.320645,132.826506" fill="#FEFEFE" id="Fill-8"/><path d="M255.320645,144.2081 C192.619749,144.2081 141.610794,194.859571 141.610794,257.121041 C141.610794,319.374924 192.619749,370.026394 255.320645,370.026394 C318.02154,370.026394 369.030496,319.374924 369.030496,257.121041 C369.030496,194.859571 318.02154,144.2081 255.320645,144.2081 M255.320645,392.7911 C179.980227,392.7911 118.685421,331.933453 118.685421,257.121041 C118.685421,182.308629 179.980227,121.443394 255.320645,121.443394 C330.661063,121.443394 391.955869,182.308629 391.955869,257.121041 C391.955869,331.933453 330.661063,392.7911 255.320645,392.7911" fill="#2E2E30" id="Fill-10"/><path d="M255.320645,243.796859 C260.769242,243.796859 265.094496,242.385447 268.288764,239.562624 C271.490675,236.7398 273.087809,233.150565 273.087809,228.802506 L273.087809,228.445859 C273.087809,224.682094 271.551809,221.335682 268.472167,218.391447 C265.384884,215.4548 261.006137,213.975094 255.320645,213.975094 C249.635152,213.975094 245.256406,215.424447 242.169122,218.300388 C239.089481,221.183918 237.553481,224.507565 237.553481,228.271329 L237.553481,228.620388 C237.553481,232.976035 239.150615,236.595624 242.352525,239.479153 C245.554436,242.362682 249.872048,243.796859 255.320645,243.796859 M255.320645,296.201212 C262.075988,296.201212 267.341182,294.729094 271.13151,291.792447 C274.921839,288.848212 276.817003,285.205859 276.817003,280.850212 L276.817003,280.493565 C276.817003,275.675035 274.807212,271.941624 270.779988,269.293329 C266.752764,266.645035 261.594555,265.324682 255.320645,265.324682 C249.046734,265.324682 243.888525,266.645035 239.868943,269.293329 C235.834078,271.941624 233.824287,275.675035 233.824287,280.493565 L233.824287,280.850212 C233.824287,285.084447 235.719451,288.704035 239.509779,291.701388 C243.300107,294.698741 248.565301,296.201212 255.320645,296.201212 M255.320645,318.609271 C248.450675,318.609271 242.085063,317.759388 236.223809,316.052035 C230.354913,314.344682 225.288406,311.931624 221.031928,308.812859 C216.760167,305.701682 213.420704,301.968271 210.990615,297.612624 C208.560525,293.264565 207.345481,288.377741 207.345481,282.967329 L207.345481,282.618271 C207.345481,275.090741 209.034316,269.004976 212.411988,264.353388 C215.782018,259.709388 220.787391,255.854565 227.428107,252.796506 C222.567928,249.859859 218.716466,246.300976 215.873719,242.119859 C213.030973,237.946329 211.6096,232.505565 211.6096,225.797565 L211.6096,225.448506 C211.6096,220.7438 212.648884,216.335035 214.727451,212.214624 C216.790734,208.094212 219.755749,204.512565 223.607212,201.446918 C227.458675,198.396447 232.043749,195.983388 237.370078,194.215329 C242.71169,192.454859 248.68757,191.574624 255.320645,191.574624 C261.839093,191.574624 267.792048,192.454859 273.17951,194.215329 C278.566973,195.983388 283.182615,198.366094 287.034078,201.363447 C290.88554,204.3608 293.850555,207.950035 295.921481,212.123565 C297.992406,216.304682 299.03169,220.7438 299.03169,225.448506 L299.03169,225.797565 C299.03169,232.505565 297.610316,237.946329 294.76757,242.119859 C291.924824,246.300976 288.073361,249.859859 283.213182,252.796506 C289.502376,256.0898 294.408406,259.944624 297.969481,264.353388 C301.522913,268.769741 303.295809,274.620271 303.295809,281.904976 L303.295809,282.261624 C303.295809,288.028682 302.080764,293.143153 299.658316,297.612624 C297.220585,302.082094 293.881122,305.876212 289.617003,308.994976 C285.352884,312.106153 280.286376,314.488859 274.425122,316.143094 C268.556227,317.782153 262.190615,318.609271 255.320645,318.609271" fill="#2E2E30" id="Fill-12"/></g></g></g></svg>